{
    "asset" : {
        "generator" : "Khronos glTF Blender I/O v1.7.33",
        "version" : "2.0"
    },
    "scene" : 0,
    "scenes" : [
        {
            "name" : "Scene",
            "nodes" : [
                0
            ]
        }
    ],
    "nodes" : [
        {
            "mesh" : 0,
            "name" : "Circle",
            "scale" : [
                2.31070613861084,
                2.31070613861084,
                2.31070613861084
            ],
            "translation" : [
                0,
                3.4079346656799316,
                0
            ]
        }
    ],
    "materials" : [
        {
            "doubleSided" : true,
            "name" : "ground",
            "pbrMetallicRoughness" : {
                "baseColorTexture" : {
                    "index" : 0
                },
                "metallicFactor" : 0
            }
        },
        {
            "doubleSided" : true,
            "name" : "walls",
            "pbrMetallicRoughness" : {
                "baseColorTexture" : {
                    "index" : 1
                },
                "metallicFactor" : 0,
                "roughnessFactor" : 0.5
            }
        },
        {
            "doubleSided" : true,
            "name" : "back",
            "pbrMetallicRoughness" : {
                "baseColorTexture" : {
                    "index" : 2
                },
                "metallicFactor" : 0,
                "roughnessFactor" : 0.5
            }
        },
        {
            "doubleSided" : true,
            "name" : "tunnel",
            "pbrMetallicRoughness" : {
                "baseColorTexture" : {
                    "index" : 3
                },
                "metallicFactor" : 0,
                "roughnessFactor" : 0.5
            }
        }
    ],
    "meshes" : [
        {
            "name" : "Circle",
            "primitives" : [
                {
                    "attributes" : {
                        "POSITION" : 0,
                        "NORMAL" : 1,
                        "TEXCOORD_0" : 2
                    },
                    "indices" : 3,
                    "material" : 0
                },
                {
                    "attributes" : {
                        "POSITION" : 4,
                        "NORMAL" : 5,
                        "TEXCOORD_0" : 6
                    },
                    "indices" : 7,
                    "material" : 1
                },
                {
                    "attributes" : {
                        "POSITION" : 8,
                        "NORMAL" : 9,
                        "TEXCOORD_0" : 10
                    },
                    "indices" : 11,
                    "material" : 2
                },
                {
                    "attributes" : {
                        "POSITION" : 12,
                        "NORMAL" : 13,
                        "TEXCOORD_0" : 14
                    },
                    "indices" : 15,
                    "material" : 3
                }
            ]
        }
    ],
    "textures" : [
        {
            "sampler" : 0,
            "source" : 0
        },
        {
            "sampler" : 1,
            "source" : 1
        },
        {
            "sampler" : 1,
            "source" : 2
        },
        {
            "sampler" : 1,
            "source" : 3
        }
    ],
    "images" : [
        {
            "bufferView" : 4,
            "mimeType" : "image/png",
            "name" : "ground_baseColor"
        },
        {
            "bufferView" : 9,
            "mimeType" : "image/png",
            "name" : "walls_baseColor"
        },
        {
            "bufferView" : 14,
            "mimeType" : "image/png",
            "name" : "back_baseColor"
        },
        {
            "bufferView" : 19,
            "mimeType" : "image/png",
            "name" : "tunnel_baseColor"
        }
    ],
    "accessors" : [
        {
            "bufferView" : 0,
            "componentType" : 5126,
            "count" : 62,
            "max" : [
                5.010320663452148,
                -1.2624216079711914,
                5.010320663452148
            ],
            "min" : [
                -5.010320663452148,
                -1.2624216079711914,
                -5.010320663452148
            ],
            "type" : "VEC3"
        },
        {
            "bufferView" : 1,
            "componentType" : 5126,
            "count" : 62,
            "type" : "VEC3"
        },
        {
            "bufferView" : 2,
            "componentType" : 5126,
            "count" : 62,
            "type" : "VEC2"
        },
        {
            "bufferView" : 3,
            "componentType" : 5123,
            "count" : 96,
            "type" : "SCALAR"
        },
        {
            "bufferView" : 5,
            "componentType" : 5126,
            "count" : 888,
            "max" : [
                6.569087505340576,
                1.4462934732437134,
                6.569087505340576
            ],
            "min" : [
                -6.569087505340576,
                -2.3259880542755127,
                -6.569087505340576
            ],
            "type" : "VEC3"
        },
        {
            "bufferView" : 6,
            "componentType" : 5126,
            "count" : 888,
            "type" : "VEC3"
        },
        {
            "bufferView" : 7,
            "componentType" : 5126,
            "count" : 888,
            "type" : "VEC2"
        },
        {
            "bufferView" : 8,
            "componentType" : 5123,
            "count" : 1824,
            "type" : "SCALAR"
        },
        {
            "bufferView" : 10,
            "componentType" : 5126,
            "count" : 42,
            "max" : [
                0.3176097273826599,
                -0.3938986659049988,
                4.860605716705322
            ],
            "min" : [
                -0.31760966777801514,
                -1.3010433912277222,
                -4.744518756866455
            ],
            "type" : "VEC3"
        },
        {
            "bufferView" : 11,
            "componentType" : 5126,
            "count" : 42,
            "type" : "VEC3"
        },
        {
            "bufferView" : 12,
            "componentType" : 5126,
            "count" : 42,
            "type" : "VEC2"
        },
        {
            "bufferView" : 13,
            "componentType" : 5123,
            "count" : 66,
            "type" : "SCALAR"
        },
        {
            "bufferView" : 15,
            "componentType" : 5126,
            "count" : 322,
            "max" : [
                0.39631399512290955,
                -0.3304281234741211,
                5.03519344329834
            ],
            "min" : [
                -0.39631393551826477,
                -1.3010435104370117,
                -4.919106483459473
            ],
            "type" : "VEC3"
        },
        {
            "bufferView" : 16,
            "componentType" : 5126,
            "count" : 322,
            "type" : "VEC3"
        },
        {
            "bufferView" : 17,
            "componentType" : 5126,
            "count" : 322,
            "type" : "VEC2"
        },
        {
            "bufferView" : 18,
            "componentType" : 5123,
            "count" : 768,
            "type" : "SCALAR"
        }
    ],
    "bufferViews" : [
        {
            "buffer" : 0,
            "byteLength" : 744,
            "byteOffset" : 0
        },
        {
            "buffer" : 0,
            "byteLength" : 744,
            "byteOffset" : 744
        },
        {
            "buffer" : 0,
            "byteLength" : 496,
            "byteOffset" : 1488
        },
        {
            "buffer" : 0,
            "byteLength" : 192,
            "byteOffset" : 1984
        },
        {
            "buffer" : 0,
            "byteLength" : 1589510,
            "byteOffset" : 2176
        },
        {
            "buffer" : 0,
            "byteLength" : 10656,
            "byteOffset" : 1591688
        },
        {
            "buffer" : 0,
            "byteLength" : 10656,
            "byteOffset" : 1602344
        },
        {
            "buffer" : 0,
            "byteLength" : 7104,
            "byteOffset" : 1613000
        },
        {
            "buffer" : 0,
            "byteLength" : 3648,
            "byteOffset" : 1620104
        },
        {
            "buffer" : 0,
            "byteLength" : 522514,
            "byteOffset" : 1623752
        },
        {
            "buffer" : 0,
            "byteLength" : 504,
            "byteOffset" : 2146268
        },
        {
            "buffer" : 0,
            "byteLength" : 504,
            "byteOffset" : 2146772
        },
        {
            "buffer" : 0,
            "byteLength" : 336,
            "byteOffset" : 2147276
        },
        {
            "buffer" : 0,
            "byteLength" : 132,
            "byteOffset" : 2147612
        },
        {
            "buffer" : 0,
            "byteLength" : 39149,
            "byteOffset" : 2147744
        },
        {
            "buffer" : 0,
            "byteLength" : 3864,
            "byteOffset" : 2186896
        },
        {
            "buffer" : 0,
            "byteLength" : 3864,
            "byteOffset" : 2190760
        },
        {
            "buffer" : 0,
            "byteLength" : 2576,
            "byteOffset" : 2194624
        },
        {
            "buffer" : 0,
            "byteLength" : 1536,
            "byteOffset" : 2197200
        },
        {
            "buffer" : 0,
            "byteLength" : 411275,
            "byteOffset" : 2198736
        }
    ],
    "samplers" : [
        {
            "magFilter" : 9728,
            "minFilter" : 9984
        },
        {
            "magFilter" : 9729,
            "minFilter" : 9987
        }
    ],
    "buffers" : [
        {
            "byteLength" : 2610012,
            "uri" : "data:application/octet-stream;base64,"
        }
    ]
}
